<svg width="440" height="337" viewBox="0 0 440 337" fill="none" xmlns="http://www.w3.org/2000/svg">
<path fill-rule="evenodd" clip-rule="evenodd" d="M0 8.99999C6.33333 9.33332 22.9 15.7 38.5 38.5L139 168.5L28 313C28 313 13 330 0.5 330V336.5H76V330C71.5 328.167 62.9 323.9 64.5 321.5C64.6667 319.833 65.3 316.5 66.5 316.5L157.5 198.5L197.5 248.5L145 314.5C140.333 319.667 128.7 330 119.5 330V336.5H195.5V330C191 328.833 182.4 325.5 184 321.5C183.6 318.7 206.167 289 217.5 274.5C229 288.667 251.9 317.9 251.5 321.5C251 326 244 330 241 330V336.5H320.5V330C316.667 329.5 307.6 327.1 302 321.5C294.4 315.9 258.167 268.833 241 246L277 198.5L369.5 318C371.333 321 372.1 327.6 360.5 330V336.5H440V330C435.667 328.667 425 324.4 417 318C409 311.6 335.333 216 299.5 169L412 25.5C418 19.3333 431.9 7.39999 439.5 8.99999V1L360 0V8.99999C363.5 8.99999 370.5 10.5 370.5 16.5C373.3 16.5 310 99.1667 278 140.5L240.5 92.5C261.833 61.6667 307.6 1.79997 320 8.99999V0H240.5V8.99999C247.333 9.16666 258 13 246 27C234 41 222.333 57.1667 218 63.5L184.5 20C183.167 16.8333 183.3 10.2 194.5 8.99999V0H119V8.99999C124.5 5.66666 148 17.2 198 90L157.5 140L65 20C64.3333 16.3333 65.7 8.99999 76.5 8.99999V0H0V8.99999ZM219.5 118.5L180.5 169L219.5 220L259.5 169L219.5 118.5Z" fill="white"/>
</svg>
